HIERARCHY
ROOT Hips
{
	OFFSET 0.000000 0.000000 0.000000
	CHANNELS 6 Xposition Yposition Zposition Xrotation Yrotation Zrotation
	JOINT LeftUpLeg_virtual
	{
		OFFSET 0.000000 0.000000 0.000000
		CHANNELS 3 Xrotation Yrotation Zrotation
		JOINT LeftUpLeg
		{
			OFFSET 13.026900 -6.336304 -1.092800
			CHANNELS 3 Xrotation Yrotation Zrotation
			JOINT LeftLeg
			{
				OFFSET 0.524474 -46.096886 9.782700
				CHANNELS 3 Xrotation Yrotation Zrotation
				JOINT LeftFoot
				{
					OFFSET -0.524474 -53.427422 -12.948200
					CHANNELS 3 Xrotation Yrotation Zrotation
					JOINT LeftToeBase
					{
						OFFSET 0.192200 -14.009700 16.364100
						CHANNELS 3 Xrotation Yrotation Zrotation
						JOINT LeftToe_End
						{
							OFFSET -1.784700 -0.561700 9.474800
							CHANNELS 3 Xrotation Yrotation Zrotation
							End Site
							{
								OFFSET 0 0 0
							}
						}
					}
				}
			}
		}
	}
	JOINT RightUpLeg_virtual
	{
		OFFSET 0.000000 0.000000 0.000000
		CHANNELS 3 Xrotation Yrotation Zrotation
		JOINT RightUpLeg
		{
			OFFSET -12.883000 -6.336304 -1.092800
			CHANNELS 3 Xrotation Yrotation Zrotation
			JOINT RightLeg
			{
				OFFSET -0.524587 -46.096825 9.782800
				CHANNELS 3 Xrotation Yrotation Zrotation
				JOINT RightFoot
				{
					OFFSET 0.524587 -53.427383 -12.948300
					CHANNELS 3 Xrotation Yrotation Zrotation
					JOINT RightToeBase
					{
						OFFSET -0.192200 -14.009700 16.364100
						CHANNELS 3 Xrotation Yrotation Zrotation
						JOINT RightToe_End
						{
							OFFSET 1.784700 -0.561700 9.474800
							CHANNELS 3 Xrotation Yrotation Zrotation
							End Site
							{
								OFFSET 0 0 0
							}
						}
					}
				}
			}
		}
	}
	JOINT Spine_virtual
	{
		OFFSET 0.000000 0.000000 0.000000
		CHANNELS 3 Xrotation Yrotation Zrotation
		JOINT Spine
		{
			OFFSET 0.072000 7.257294 -0.789700
			CHANNELS 3 Xrotation Yrotation Zrotation
			JOINT Spine1
			{
				OFFSET 0.000000 12.508769 -0.658067
				CHANNELS 3 Xrotation Yrotation Zrotation
				JOINT Spine1_split
				{
					OFFSET 0.000000 12.508769 -0.658067
					CHANNELS 3 Xrotation Yrotation Zrotation
					JOINT Spine2
					{
						OFFSET 0.000000 12.508769 -0.658067
						CHANNELS 3 Xrotation Yrotation Zrotation
						JOINT Neck_virtual
						{
							OFFSET 0.000000 0.000000 0.000000
							CHANNELS 3 Xrotation Yrotation Zrotation
							JOINT Neck
							{
								OFFSET 0.000000 14.033295 7.520400
								CHANNELS 3 Xrotation Yrotation Zrotation
								JOINT Head
								{
									OFFSET 0.000000 8.198502 5.703100
									CHANNELS 3 Xrotation Yrotation Zrotation
									JOINT HeadTop_End
									{
										OFFSET 0.000000 17.760803 13.332701
										CHANNELS 3 Xrotation Yrotation Zrotation
										End Site
										{
											OFFSET 0 0 0
										}
									}
								}
							}
						}
						JOINT LeftShoulder_virtual
						{
							OFFSET 0.000000 0.000000 0.000000
							CHANNELS 3 Xrotation Yrotation Zrotation
							JOINT LeftShoulder
							{
								OFFSET 6.292450 5.785301 -0.669000
								CHANNELS 3 Xrotation Yrotation Zrotation
								JOINT LeftShoulder_split
								{
									OFFSET 6.292450 5.785301 -0.669000
									CHANNELS 3 Xrotation Yrotation Zrotation
									JOINT LeftArm
									{
										OFFSET 13.907140 -6.093903 1.965100
										CHANNELS 3 Xrotation Yrotation Zrotation
										JOINT LeftForeArm
										{
											OFFSET 34.140198 0.000000 0.000000
											CHANNELS 3 Xrotation Yrotation Zrotation
											JOINT LeftHand
											{
												OFFSET 40.960209 0.000000 0.000000
												CHANNELS 3 Xrotation Yrotation Zrotation
												End Site
												{
													OFFSET 0 0 0
												}
											}
										}
									}
								}
							}
						}
						JOINT RightShoulder_virtual
						{
							OFFSET 0.000000 0.000000 0.000000
							CHANNELS 3 Xrotation Yrotation Zrotation
							JOINT RightShoulder
							{
								OFFSET -6.292450 5.785301 -0.669000
								CHANNELS 3 Xrotation Yrotation Zrotation
								JOINT RightShoulder_split
								{
									OFFSET -6.292450 5.785301 -0.669000
									CHANNELS 3 Xrotation Yrotation Zrotation
									JOINT RightArm
									{
										OFFSET -13.907140 -6.093903 1.965100
										CHANNELS 3 Xrotation Yrotation Zrotation
										JOINT RightForeArm
										{
											OFFSET -34.140198 0.000000 0.000000
											CHANNELS 3 Xrotation Yrotation Zrotation
											JOINT RightHand
											{
												OFFSET -40.960209 0.000000 0.000000
												CHANNELS 3 Xrotation Yrotation Zrotation
												End Site
												{
													OFFSET 0 0 0
												}
											}
										}
									}
								}
							}
						}
					}
				}
			}
		}
	}
}
MOTION
Frames: 6
Frame Time: 0.03333333
13.871572 23.903389 -41.976536 0.000000 0.000000 0.000000 68.810249 6.791417 -3.575130 -9.822154 -6.848240 29.121037 31.404605 -1.155467 -11.815134 28.426542 50.103949 -26.949775 -4.893619 -5.684982 -2.509211 0.000000 0.000000 0.000000 71.048263 2.972835 -3.306172 -37.808662 -39.033367 -36.883489 36.766792 25.371955 -9.093177 37.218449 -43.376008 33.182217 11.710692 8.489250 3.500544 0.000000 0.000000 0.000000 75.440621 6.195992 -6.272830 15.524421 1.023000 -2.200924 -8.389238 -3.757418 -0.126173 -0.021905 0.430951 -0.017840 0.000000 0.000000 0.000000 -6.824481 -0.957701 1.220681 -8.057148 1.555208 12.584545 -25.358961 -35.646969 -11.582981 0.000000 0.000000 0.000000 -11.376659 -1.277580 -0.904125 -0.757386 -11.546853 4.921699 -0.055654 1.423762 -5.396692 29.917345 -32.439147 -54.563356 -6.928293 -36.540839 -6.463137 0.000000 0.000000 0.000000 -8.056428 -2.515169 0.124822 5.057641 2.873206 8.229283 -24.801221 1.820509 4.993662 21.426551 16.646749 46.741672 -19.369887 32.139988 28.023018 0.000000 0.000000 0.000000 
13.871228 23.904434 -41.981998 0.000000 0.000000 0.000000 68.807981 6.785178 -3.566299 -9.816411 -6.853667 29.119265 31.407986 -1.152769 -11.816926 28.438193 50.103379 -26.957220 -4.885521 -5.683283 -2.512925 0.000000 0.000000 0.000000 71.040811 2.972461 -3.304805 -37.798390 -39.037502 -36.880843 36.782327 25.369008 -9.095843 37.213972 -43.376284 33.185772 11.720862 8.491770 3.498095 0.000000 0.000000 0.000000 75.442363 6.205553 -6.275189 15.529162 1.026896 -2.204162 -8.387882 -3.751499 -0.126177 -0.021361 0.432521 -0.017614 0.000000 0.000000 0.000000 -6.821928 -0.955045 1.220572 -8.060051 1.553192 12.602040 -25.354251 -35.666814 -11.581381 0.000000 0.000000 0.000000 -11.375428 -1.272866 -0.906607 -0.752316 -11.563484 4.927462 -0.080747 1.425887 -5.375035 29.914927 -32.432354 -54.563817 -6.933818 -36.522828 -6.462069 0.000000 0.000000 0.000000 -8.055421 -2.510888 0.125180 5.055415 2.862413 8.225965 -24.809672 1.803726 4.986557 21.402155 16.598695 46.790026 -19.391525 32.128674 28.043452 0.000000 0.000000 0.000000 
13.871446 23.909073 -41.989368 0.000000 0.000000 0.000000 68.802722 6.783331 -3.560584 -9.812765 -6.853446 29.114508 31.412679 -1.141881 -11.814318 28.453535 50.103491 -26.962846 -4.878502 -5.680289 -2.518999 0.000000 0.000000 0.000000 71.032513 2.970789 -3.303703 -37.773405 -39.053178 -36.868770 36.787566 25.351830 -9.094836 37.194628 -43.394818 33.175926 11.734038 8.497354 3.493389 0.000000 0.000000 0.000000 75.439713 6.219898 -6.283050 15.539363 1.034928 -2.210706 -8.385963 -3.745012 -0.125096 -0.020931 0.435441 -0.018344 0.000000 0.000000 0.000000 -6.817278 -0.950885 1.221587 -8.059913 1.539168 12.652276 -25.367162 -35.703543 -11.595143 0.000000 0.000000 0.000000 -11.376703 -1.266976 -0.906578 -0.744876 -11.599639 4.944689 -0.090065 1.425500 -5.373151 29.897278 -32.435920 -54.556939 -6.931183 -36.476817 -6.456355 0.000000 0.000000 0.000000 -8.055932 -2.507247 0.127061 5.046654 2.824591 8.221820 -24.821346 1.789788 4.984089 21.368593 16.531397 46.832855 -19.429158 32.096541 28.090111 0.000000 0.000000 0.000000 
13.870399 23.915497 -41.999088 0.000000 0.000000 0.000000 68.796261 6.787412 -3.558333 -9.815483 -6.850764 29.107842 31.421042 -1.128622 -11.806834 28.470185 50.101893 -26.969306 -4.868499 -5.676378 -2.527236 0.000000 0.000000 0.000000 71.020450 2.968458 -3.299703 -37.744121 -39.074467 -36.855766 36.785305 25.327434 -9.091598 37.172290 -43.418269 33.166026 11.747452 8.505057 3.487321 0.000000 0.000000 0.000000 75.434330 6.234579 -6.292790 15.553913 1.046087 -2.219599 -8.382915 -3.738148 -0.123636 -0.021680 0.438678 -0.019114 0.000000 0.000000 0.000000 -6.811548 -0.945399 1.222858 -8.057985 1.516645 12.727759 -25.416450 -35.750692 -11.633220 0.000000 0.000000 0.000000 -11.378769 -1.260181 -0.904869 -0.735715 -11.652485 4.969775 -0.091333 1.420981 -5.394167 29.869397 -32.451001 -54.541277 -6.922333 -36.398631 -6.447894 0.000000 0.000000 0.000000 -8.056385 -2.503640 0.130255 5.033138 2.767305 8.212483 -24.832333 1.786895 5.000970 21.333503 16.458019 46.850422 -19.480186 32.058183 28.159521 0.000000 0.000000 0.000000 
13.869143 23.922241 -42.005634 0.000000 0.000000 0.000000 68.788809 6.798072 -3.560001 -9.822965 -6.849561 29.097016 31.433681 -1.114030 -11.795358 28.482913 50.099882 -26.969526 -4.858863 -5.672420 -2.535923 0.000000 0.000000 0.000000 71.006824 2.970485 -3.295327 -37.718825 -39.094671 -36.849636 36.787020 25.308265 -9.089927 37.158965 -43.429638 33.167491 11.758390 8.513482 3.482798 0.000000 0.000000 0.000000 75.426954 6.251419 -6.305544 15.570043 1.058622 -2.229828 -8.378493 -3.731015 -0.122017 -0.023331 0.439074 -0.020585 0.000000 0.000000 0.000000 -6.802774 -0.938863 1.224568 -8.055466 1.491648 12.818294 -25.515683 -35.792947 -11.701618 0.000000 0.000000 0.000000 -11.380244 -1.252370 -0.902209 -0.726612 -11.717456 4.999341 -0.087448 1.416885 -5.432726 29.829898 -32.478547 -54.519011 -6.910445 -36.287357 -6.439150 0.000000 0.000000 0.000000 -8.054638 -2.499532 0.133618 5.016922 2.701192 8.193104 -24.834611 1.782038 5.026517 21.302600 16.384476 46.832046 -19.534602 32.017420 28.240404 0.000000 0.000000 0.000000 
13.866586 23.929352 -42.012775 0.000000 0.000000 0.000000 68.781207 6.815028 -3.563847 -9.834080 -6.856981 29.081351 31.453800 -1.102249 -11.780616 28.497706 50.095531 -26.968095 -4.854930 -5.668688 -2.542879 0.000000 0.000000 0.000000 70.992945 2.979542 -3.291728 -37.703385 -39.110534 -36.856066 36.799802 25.295968 -9.089966 37.164408 -43.422050 33.183576 11.771822 8.521094 3.482786 0.000000 0.000000 0.000000 75.420055 6.270375 -6.319972 15.584465 1.070193 -2.240667 -8.371547 -3.723531 -0.120103 -0.023295 0.437643 -0.021050 0.000000 0.000000 0.000000 -6.789681 -0.931180 1.226567 -8.051844 1.471165 12.911913 -25.666116 -35.818414 -11.795498 0.000000 0.000000 0.000000 -11.379651 -1.244035 -0.899372 -0.719836 -11.790070 5.029243 -0.076831 1.439983 -5.488899 29.781069 -32.512131 -54.494449 -6.901607 -36.147550 -6.433458 0.000000 0.000000 0.000000 -8.050265 -2.494424 0.136495 5.000875 2.638669 8.161445 -24.844274 1.770356 5.062562 21.278532 16.314954 46.772917 -19.580663 31.972068 28.318821 0.000000 0.000000 0.000000 
